<mxfile host="app.diagrams.net" modified="2023-09-19T16:13:02.036Z" agent="Mozilla/5.0 (Windows NT 10.0; Win64; x64) AppleWebKit/537.36 (KHTML, like Gecko) Chrome/116.0.0.0 Safari/537.36" etag="8Mnf2dMG8_186A1qUizU" version="21.7.5" type="device">
  <diagram id="C5RBs43oDa-KdzZeNtuy" name="Page-1">
    <mxGraphModel dx="521" dy="277" grid="1" gridSize="10" guides="1" tooltips="1" connect="1" arrows="1" fold="1" page="1" pageScale="1" pageWidth="827" pageHeight="1169" math="0" shadow="0">
      <root>
        <mxCell id="WIyWlLk6GJQsqaUBKTNV-0" />
        <mxCell id="WIyWlLk6GJQsqaUBKTNV-1" parent="WIyWlLk6GJQsqaUBKTNV-0" />
        <mxCell id="VEYTCsmouQsSnPpoifKZ-0" value="&amp;lt;&amp;lt;interface&amp;gt;&amp;gt;&lt;br&gt;IAccesMenu" style="swimlane;fontStyle=0;childLayout=stackLayout;horizontal=1;startSize=30;horizontalStack=0;resizeParent=1;resizeParentMax=0;resizeLast=0;collapsible=1;marginBottom=0;whiteSpace=wrap;html=1;" vertex="1" parent="WIyWlLk6GJQsqaUBKTNV-1">
          <mxGeometry x="80" y="40" width="210" height="80" as="geometry">
            <mxRectangle x="80" y="40" width="110" height="40" as="alternateBounds" />
          </mxGeometry>
        </mxCell>
        <mxCell id="VEYTCsmouQsSnPpoifKZ-1" value="+GetAutorizationToken(User): Token" style="text;strokeColor=none;fillColor=none;align=left;verticalAlign=middle;spacingLeft=4;spacingRight=4;overflow=hidden;points=[[0,0.5],[1,0.5]];portConstraint=eastwest;rotatable=0;whiteSpace=wrap;html=1;" vertex="1" parent="VEYTCsmouQsSnPpoifKZ-0">
          <mxGeometry y="30" width="210" height="50" as="geometry" />
        </mxCell>
        <mxCell id="VEYTCsmouQsSnPpoifKZ-4" value="AccesMenu" style="swimlane;fontStyle=0;childLayout=stackLayout;horizontal=1;startSize=30;horizontalStack=0;resizeParent=1;resizeParentMax=0;resizeLast=0;collapsible=1;marginBottom=0;whiteSpace=wrap;html=1;" vertex="1" parent="WIyWlLk6GJQsqaUBKTNV-1">
          <mxGeometry x="20" y="230" width="210" height="90" as="geometry" />
        </mxCell>
        <mxCell id="VEYTCsmouQsSnPpoifKZ-5" value="+GetAutorizationToken(User): Token" style="text;strokeColor=none;fillColor=none;align=left;verticalAlign=middle;spacingLeft=4;spacingRight=4;overflow=hidden;points=[[0,0.5],[1,0.5]];portConstraint=eastwest;rotatable=0;whiteSpace=wrap;html=1;" vertex="1" parent="VEYTCsmouQsSnPpoifKZ-4">
          <mxGeometry y="30" width="210" height="30" as="geometry" />
        </mxCell>
        <mxCell id="VEYTCsmouQsSnPpoifKZ-6" value="-CheckToken(Token):boolean" style="text;strokeColor=none;fillColor=none;align=left;verticalAlign=middle;spacingLeft=4;spacingRight=4;overflow=hidden;points=[[0,0.5],[1,0.5]];portConstraint=eastwest;rotatable=0;whiteSpace=wrap;html=1;" vertex="1" parent="VEYTCsmouQsSnPpoifKZ-4">
          <mxGeometry y="60" width="210" height="30" as="geometry" />
        </mxCell>
        <mxCell id="VEYTCsmouQsSnPpoifKZ-8" value="&amp;lt;&amp;lt;interface&amp;gt;&amp;gt;&lt;br&gt;IAccesRepo" style="swimlane;fontStyle=0;childLayout=stackLayout;horizontal=1;startSize=30;horizontalStack=0;resizeParent=1;resizeParentMax=0;resizeLast=0;collapsible=1;marginBottom=0;whiteSpace=wrap;html=1;" vertex="1" parent="WIyWlLk6GJQsqaUBKTNV-1">
          <mxGeometry x="480" y="40" width="280" height="60" as="geometry" />
        </mxCell>
        <mxCell id="VEYTCsmouQsSnPpoifKZ-9" value="+GetKey(): User" style="text;strokeColor=none;fillColor=none;align=left;verticalAlign=middle;spacingLeft=4;spacingRight=4;overflow=hidden;points=[[0,0.5],[1,0.5]];portConstraint=eastwest;rotatable=0;whiteSpace=wrap;html=1;" vertex="1" parent="VEYTCsmouQsSnPpoifKZ-8">
          <mxGeometry y="30" width="280" height="30" as="geometry" />
        </mxCell>
        <mxCell id="VEYTCsmouQsSnPpoifKZ-12" value="AccesComp" style="swimlane;fontStyle=0;childLayout=stackLayout;horizontal=1;startSize=30;horizontalStack=0;resizeParent=1;resizeParentMax=0;resizeLast=0;collapsible=1;marginBottom=0;whiteSpace=wrap;html=1;" vertex="1" parent="WIyWlLk6GJQsqaUBKTNV-1">
          <mxGeometry x="320" y="230" width="240" height="60" as="geometry" />
        </mxCell>
        <mxCell id="VEYTCsmouQsSnPpoifKZ-13" value="+Autorization(User): Token" style="text;strokeColor=none;fillColor=none;align=left;verticalAlign=middle;spacingLeft=4;spacingRight=4;overflow=hidden;points=[[0,0.5],[1,0.5]];portConstraint=eastwest;rotatable=0;whiteSpace=wrap;html=1;" vertex="1" parent="VEYTCsmouQsSnPpoifKZ-12">
          <mxGeometry y="30" width="240" height="30" as="geometry" />
        </mxCell>
        <mxCell id="VEYTCsmouQsSnPpoifKZ-16" value="AccesRepo" style="swimlane;fontStyle=0;childLayout=stackLayout;horizontal=1;startSize=30;horizontalStack=0;resizeParent=1;resizeParentMax=0;resizeLast=0;collapsible=1;marginBottom=0;whiteSpace=wrap;html=1;" vertex="1" parent="WIyWlLk6GJQsqaUBKTNV-1">
          <mxGeometry x="600" y="230" width="200" height="60" as="geometry" />
        </mxCell>
        <mxCell id="VEYTCsmouQsSnPpoifKZ-17" value="+GetKey(User): User" style="text;strokeColor=none;fillColor=none;align=left;verticalAlign=middle;spacingLeft=4;spacingRight=4;overflow=hidden;points=[[0,0.5],[1,0.5]];portConstraint=eastwest;rotatable=0;whiteSpace=wrap;html=1;" vertex="1" parent="VEYTCsmouQsSnPpoifKZ-16">
          <mxGeometry y="30" width="200" height="30" as="geometry" />
        </mxCell>
        <mxCell id="VEYTCsmouQsSnPpoifKZ-20" value="Toker" style="swimlane;fontStyle=0;childLayout=stackLayout;horizontal=1;startSize=30;horizontalStack=0;resizeParent=1;resizeParentMax=0;resizeLast=0;collapsible=1;marginBottom=0;whiteSpace=wrap;html=1;" vertex="1" parent="WIyWlLk6GJQsqaUBKTNV-1">
          <mxGeometry x="180" y="420" width="140" height="60" as="geometry" />
        </mxCell>
        <mxCell id="VEYTCsmouQsSnPpoifKZ-21" value="+AccessToken: String" style="text;strokeColor=none;fillColor=none;align=left;verticalAlign=middle;spacingLeft=4;spacingRight=4;overflow=hidden;points=[[0,0.5],[1,0.5]];portConstraint=eastwest;rotatable=0;whiteSpace=wrap;html=1;" vertex="1" parent="VEYTCsmouQsSnPpoifKZ-20">
          <mxGeometry y="30" width="140" height="30" as="geometry" />
        </mxCell>
        <mxCell id="VEYTCsmouQsSnPpoifKZ-24" value="User" style="swimlane;fontStyle=0;childLayout=stackLayout;horizontal=1;startSize=30;horizontalStack=0;resizeParent=1;resizeParentMax=0;resizeLast=0;collapsible=1;marginBottom=0;whiteSpace=wrap;html=1;" vertex="1" parent="WIyWlLk6GJQsqaUBKTNV-1">
          <mxGeometry x="530" y="440" width="140" height="120" as="geometry" />
        </mxCell>
        <mxCell id="VEYTCsmouQsSnPpoifKZ-25" value="+id: int" style="text;strokeColor=none;fillColor=none;align=left;verticalAlign=middle;spacingLeft=4;spacingRight=4;overflow=hidden;points=[[0,0.5],[1,0.5]];portConstraint=eastwest;rotatable=0;whiteSpace=wrap;html=1;" vertex="1" parent="VEYTCsmouQsSnPpoifKZ-24">
          <mxGeometry y="30" width="140" height="30" as="geometry" />
        </mxCell>
        <mxCell id="VEYTCsmouQsSnPpoifKZ-26" value="+email: String" style="text;strokeColor=none;fillColor=none;align=left;verticalAlign=middle;spacingLeft=4;spacingRight=4;overflow=hidden;points=[[0,0.5],[1,0.5]];portConstraint=eastwest;rotatable=0;whiteSpace=wrap;html=1;" vertex="1" parent="VEYTCsmouQsSnPpoifKZ-24">
          <mxGeometry y="60" width="140" height="30" as="geometry" />
        </mxCell>
        <mxCell id="VEYTCsmouQsSnPpoifKZ-27" value="+hashPass: Long" style="text;strokeColor=none;fillColor=none;align=left;verticalAlign=middle;spacingLeft=4;spacingRight=4;overflow=hidden;points=[[0,0.5],[1,0.5]];portConstraint=eastwest;rotatable=0;whiteSpace=wrap;html=1;" vertex="1" parent="VEYTCsmouQsSnPpoifKZ-24">
          <mxGeometry y="90" width="140" height="30" as="geometry" />
        </mxCell>
        <mxCell id="VEYTCsmouQsSnPpoifKZ-31" value="" style="endArrow=diamondThin;endFill=1;endSize=24;html=1;rounded=0;entryX=0.168;entryY=-0.053;entryDx=0;entryDy=0;entryPerimeter=0;" edge="1" parent="WIyWlLk6GJQsqaUBKTNV-1">
          <mxGeometry width="160" relative="1" as="geometry">
            <mxPoint x="290" y="83.18" as="sourcePoint" />
            <mxPoint x="360.31999999999994" y="229.99999999999994" as="targetPoint" />
            <Array as="points">
              <mxPoint x="360" y="83.18" />
            </Array>
          </mxGeometry>
        </mxCell>
        <mxCell id="VEYTCsmouQsSnPpoifKZ-32" value="" style="endArrow=diamondThin;endFill=1;endSize=24;html=1;rounded=0;exitX=0;exitY=0.5;exitDx=0;exitDy=0;entryX=0.5;entryY=0;entryDx=0;entryDy=0;" edge="1" parent="WIyWlLk6GJQsqaUBKTNV-1" source="VEYTCsmouQsSnPpoifKZ-9" target="VEYTCsmouQsSnPpoifKZ-12">
          <mxGeometry width="160" relative="1" as="geometry">
            <mxPoint x="520" y="85" as="sourcePoint" />
            <mxPoint x="490" y="430" as="targetPoint" />
            <Array as="points">
              <mxPoint x="440" y="85" />
            </Array>
          </mxGeometry>
        </mxCell>
        <mxCell id="VEYTCsmouQsSnPpoifKZ-33" value="" style="endArrow=open;endFill=1;endSize=12;html=1;rounded=0;" edge="1" parent="WIyWlLk6GJQsqaUBKTNV-1">
          <mxGeometry width="160" relative="1" as="geometry">
            <mxPoint x="202" y="320" as="sourcePoint" />
            <mxPoint x="202" y="420" as="targetPoint" />
          </mxGeometry>
        </mxCell>
        <mxCell id="VEYTCsmouQsSnPpoifKZ-34" value="" style="endArrow=open;endFill=1;endSize=12;html=1;rounded=0;exitX=0;exitY=0.5;exitDx=0;exitDy=0;entryX=0.713;entryY=0.01;entryDx=0;entryDy=0;entryPerimeter=0;" edge="1" parent="WIyWlLk6GJQsqaUBKTNV-1" source="VEYTCsmouQsSnPpoifKZ-13" target="VEYTCsmouQsSnPpoifKZ-20">
          <mxGeometry width="160" relative="1" as="geometry">
            <mxPoint x="330" y="430" as="sourcePoint" />
            <mxPoint x="490" y="430" as="targetPoint" />
            <Array as="points">
              <mxPoint x="280" y="275" />
            </Array>
          </mxGeometry>
        </mxCell>
        <mxCell id="VEYTCsmouQsSnPpoifKZ-35" value="" style="endArrow=open;endFill=1;endSize=12;html=1;rounded=0;exitX=0.917;exitY=1.089;exitDx=0;exitDy=0;exitPerimeter=0;" edge="1" parent="WIyWlLk6GJQsqaUBKTNV-1">
          <mxGeometry width="160" relative="1" as="geometry">
            <mxPoint x="760.0000000000001" y="289.99999999999983" as="sourcePoint" />
            <mxPoint x="670" y="520" as="targetPoint" />
            <Array as="points">
              <mxPoint x="760" y="520" />
            </Array>
          </mxGeometry>
        </mxCell>
        <mxCell id="VEYTCsmouQsSnPpoifKZ-36" value="" style="endArrow=open;endFill=1;endSize=12;html=1;rounded=0;entryX=0.004;entryY=0.629;entryDx=0;entryDy=0;entryPerimeter=0;" edge="1" parent="WIyWlLk6GJQsqaUBKTNV-1" target="VEYTCsmouQsSnPpoifKZ-26">
          <mxGeometry width="160" relative="1" as="geometry">
            <mxPoint x="120" y="320" as="sourcePoint" />
            <mxPoint x="205" y="570" as="targetPoint" />
            <Array as="points">
              <mxPoint x="120" y="520" />
            </Array>
          </mxGeometry>
        </mxCell>
        <mxCell id="VEYTCsmouQsSnPpoifKZ-37" value="" style="endArrow=open;endFill=1;endSize=12;html=1;rounded=0;exitX=0.917;exitY=1.089;exitDx=0;exitDy=0;exitPerimeter=0;entryX=0.09;entryY=0.017;entryDx=0;entryDy=0;entryPerimeter=0;" edge="1" parent="WIyWlLk6GJQsqaUBKTNV-1" source="VEYTCsmouQsSnPpoifKZ-13" target="VEYTCsmouQsSnPpoifKZ-24">
          <mxGeometry width="160" relative="1" as="geometry">
            <mxPoint x="330" y="430" as="sourcePoint" />
            <mxPoint x="490" y="430" as="targetPoint" />
          </mxGeometry>
        </mxCell>
        <mxCell id="VEYTCsmouQsSnPpoifKZ-38" value="" style="endArrow=block;dashed=1;endFill=0;endSize=12;html=1;rounded=0;exitX=0.098;exitY=-0.015;exitDx=0;exitDy=0;exitPerimeter=0;entryX=0;entryY=0.244;entryDx=0;entryDy=0;entryPerimeter=0;" edge="1" parent="WIyWlLk6GJQsqaUBKTNV-1" source="VEYTCsmouQsSnPpoifKZ-4" target="VEYTCsmouQsSnPpoifKZ-0">
          <mxGeometry width="160" relative="1" as="geometry">
            <mxPoint x="320" y="300" as="sourcePoint" />
            <mxPoint x="480" y="300" as="targetPoint" />
            <Array as="points">
              <mxPoint x="40" y="60" />
            </Array>
          </mxGeometry>
        </mxCell>
        <mxCell id="VEYTCsmouQsSnPpoifKZ-39" value="" style="endArrow=block;dashed=1;endFill=0;endSize=12;html=1;rounded=0;exitX=0.949;exitY=-0.013;exitDx=0;exitDy=0;exitPerimeter=0;entryX=0.998;entryY=0.332;entryDx=0;entryDy=0;entryPerimeter=0;" edge="1" parent="WIyWlLk6GJQsqaUBKTNV-1" source="VEYTCsmouQsSnPpoifKZ-16" target="VEYTCsmouQsSnPpoifKZ-8">
          <mxGeometry width="160" relative="1" as="geometry">
            <mxPoint x="650" y="160" as="sourcePoint" />
            <mxPoint x="810" y="160" as="targetPoint" />
            <Array as="points">
              <mxPoint x="790" y="60" />
            </Array>
          </mxGeometry>
        </mxCell>
      </root>
    </mxGraphModel>
  </diagram>
</mxfile>
